999
GSFrameWork, Version=4.2.15.8
0
SECTION
2
HEADER
9
$ACADVER
1
AC1009
9
$EXTMIN
10
-781819.87
20
-1068783.71
9
$EXTMAX
10
-781273.19
20
-1067833.64
9
$LIMMIN
10
-781819.87
20
-1068783.71
9
$LIMMAX
10
-781273.19
20
-1067833.64
9
$LTSCALE
40
1
9
$PLINEGEN
70
1
0
ENDSEC
0
SECTION
2
TABLES
0
TABLE
2
LTYPE
70
3
0
LTYPE
2
CONTINUOUS
70
0
3
Solid line
72
65
73
0
40
0
0
LTYPE
2
0_206_2
70
64
3
User style 0_206_2
72
65
73
0
40
0.0
0
LTYPE
2
0_205_2
70
64
3
User style 0_205_2
72
65
73
0
40
0.0
0
ENDTAB
0
TABLE
2
LAYER
70
8
0
LAYER
2
404
70
64
62
1
6
CONTINUOUS
0
LAYER
2
1029
70
64
62
1
6
CONTINUOUS
0
LAYER
2
308
70
64
62
1
6
CONTINUOUS
0
LAYER
2
18
70
64
62
1
6
CONTINUOUS
0
LAYER
2
20602
70
64
62
1
6
CONTINUOUS
0
LAYER
2
20502
70
64
62
1
6
CONTINUOUS
0
LAYER
2
21900
70
64
62
1
6
CONTINUOUS
0
LAYER
2
20600
70
64
62
1
6
CONTINUOUS
0
ENDTAB
0
TABLE
2
VPORT
70
1
0
VPORT
2
*ACTIVE
70
0
10
0
20
0
11
1
21
1
12
0
22
0
13
0
23
0
14
0
24
0
15
0
25
0
16
0
26
0
36
1
17
-781546.53
27
-1068308.675
37
0
40
950.070000000065
41
0.57541023293022
42
50
43
4
44
0
50
0
51
0
71
0
72
100
73
1
74
0
75
0
76
0
77
0
78
0
0
ENDTAB
0
ENDSEC
0
SECTION
2
BLOCKS
0
BLOCK
2
4_02$0
10
0
20
0
70
0
8
21900
0
CIRCLE
8
404
6
CONTINUOUS
62
255
10
-0.00680000000284053
20
0.000842105015181005
30
0
40
0.175
0
ENDBLK
0
BLOCK
2
1029$1
10
0
20
0
70
0
8
404
0
LINE
8
1029
6
CONTINUOUS
62
6
10
0
20
0
30
0
11
0
21
3.0009981799
31
0
0
LINE
8
1029
6
CONTINUOUS
62
6
10
0
20
3.0009981799
30
0
11
0.50073798
21
1.9995222101
31
0
0
LINE
8
1029
6
CONTINUOUS
62
6
10
0
20
3.0009981799
30
0
11
-0.50073799
21
1.9995222101
31
0
0
ENDBLK
0
BLOCK
2
3_08$2
10
0
20
0
70
0
8
1029
0
LINE
8
308
6
CONTINUOUS
62
255
10
0.74971628
20
0
30
0
11
1.7462903601
21
0
31
0
0
LINE
8
308
6
CONTINUOUS
62
255
10
0.74971628
20
0
30
0
11
0
21
4.0000106497
31
0
0
LINE
8
308
6
CONTINUOUS
62
255
10
0
20
4.0000106497
30
0
11
-0.74971628
21
0
31
0
0
ENDBLK
0
ENDSEC
0
SECTION
2
ENTITIES
0
INSERT
8
404
6
BYBLOCK
62
0
2
4_02$0
10
-781469.49
20
-1068677.36
30
0
0
LINE
8
1029
6
CONTINUOUS
62
255
10
-781475.94
20
-1068677.58
30
0
11
-781480.69
21
-1068673.42
31
0
0
INSERT
8
1029
6
BYBLOCK
62
0
2
1029$1
10
-781480.69
20
-1068673.42
30
0
50
49
0
INSERT
8
308
6
BYBLOCK
62
0
2
3_08$2
10
-781472.93
20
-1068675.02
30
0
0
INSERT
8
308
6
BYBLOCK
62
0
2
3_08$2
10
-781684.45
20
-1068148.75
30
0
0
INSERT
8
308
6
BYBLOCK
62
0
2
3_08$2
10
-781387.69
20
-1068349.71
30
0
0
INSERT
8
308
6
BYBLOCK
62
0
2
3_08$2
10
-781597.41
20
-1068072.61
30
0
0
INSERT
8
308
6
BYBLOCK
62
0
2
3_08$2
10
-781570.92
20
-1068376.93
30
0
0
INSERT
8
308
6
BYBLOCK
62
0
2
3_08$2
10
-781557.42
20
-1068545.59
30
0
0
INSERT
8
308
6
BYBLOCK
62
0
2
3_08$2
10
-781488.54
20
-1068537.3
30
0
0
INSERT
8
308
6
BYBLOCK
62
0
2
3_08$2
10
-781561.9
20
-1068396.61
30
0
0
TEXT
8
18
6
CONTINUOUS
62
255
1
53/2
10
-781485.715794096
20
-1068671.365
30
0
11
-781483.51
21
-1068670.94
31
0
40
1.7
50
0
72
1
73
1
0
TEXT
8
18
6
CONTINUOUS
62
255
1
47/2
10
-781686.415794096
20
-1068152.485
30
0
11
-781684.21
21
-1068152.06
31
0
40
1.7
50
0
72
1
73
1
0
TEXT
8
18
6
CONTINUOUS
62
255
1
51
10
-781388.67
20
-1068353.025
30
0
11
-781388.67
21
-1068352.6
31
0
40
1.7
50
0
72
0
73
1
0
TEXT
8
18
6
CONTINUOUS
62
255
1
45
10
-781598.64
20
-1068076.135
30
0
11
-781598.64
21
-1068075.71
31
0
40
1.7
50
0
72
0
73
1
0
TEXT
8
18
6
CONTINUOUS
62
255
1
44/1
10
-781712.695794096
20
-1068073.765
30
0
11
-781710.49
21
-1068073.34
31
0
40
1.7
50
0
72
1
73
1
0
TEXT
8
18
6
CONTINUOUS
62
255
1
807/3
10
-781465.566099863
20
-1068767.605
30
0
11
-781462.73
21
-1068767.18
31
0
40
1.7
50
0
72
1
73
1
0
TEXT
8
18
6
CONTINUOUS
62
255
1
513
10
-781450.01
20
-1068678.285
30
0
11
-781450.01
21
-1068677.86
31
0
40
1.7
50
0
72
0
73
1
0
TEXT
8
18
6
CONTINUOUS
62
255
1
50/3
10
-781568.56208843
20
-1068383.18486393
30
0
11
-781568.48
21
-1068380.94
31
0
40
1.7
50
77
72
1
73
1
0
TEXT
8
18
6
CONTINUOUS
62
255
1
44/2
10
-781433.995794096
20
-1068437.595
30
0
11
-781431.79
21
-1068437.17
31
0
40
1.7
50
0
72
1
73
1
0
TEXT
8
18
6
CONTINUOUS
62
255
1
447
10
-781478.11
20
-1068278.015
30
0
11
-781478.11
21
-1068277.59
31
0
40
1.7
50
0
72
0
73
1
0
TEXT
8
18
6
CONTINUOUS
62
255
1
517
10
-781471.11
20
-1068680.715
30
0
11
-781471.11
21
-1068680.29
31
0
40
1.7
50
0
72
0
73
1
0
TEXT
8
18
6
CONTINUOUS
62
255
1
807/2
10
-781560.066099863
20
-1068548.325
30
0
11
-781557.23
21
-1068547.9
31
0
40
1.7
50
0
72
1
73
1
0
TEXT
8
18
6
CONTINUOUS
62
255
1
52
10
-781489.48
20
-1068541.355
30
0
11
-781489.48
21
-1068540.93
31
0
40
1.7
50
0
72
0
73
1
0
TEXT
8
18
6
CONTINUOUS
62
255
1
930/2
10
-781564.156099863
20
-1068399.275
30
0
11
-781561.32
21
-1068398.85
31
0
40
1.7
50
0
72
1
73
1
0
LINE
8
20602
6
0_206_2
62
3
10
-781412.97
20
-1068631.49
30
0
11
-781403.96
21
-1068609.99
31
0
0
LINE
8
20602
6
0_206_2
62
3
10
-781457.11
20
-1068760.45
30
0
11
-781459.08
21
-1068775.9
31
0
0
LINE
8
20502
6
0_205_2
62
3
10
-781804.84
20
-1067915.49
30
0
11
-781799.96
21
-1067942.02
31
0
0
LINE
8
20502
6
0_205_2
62
3
10
-781725.84
20
-1068061.9
30
0
11
-781693.83
21
-1068152.41
31
0
0
LINE
8
20502
6
0_205_2
62
3
10
-781567.1
20
-1068405
30
0
11
-781566.6
21
-1068454.25
31
0
0
LINE
8
20502
6
0_205_2
62
3
10
-781675.02
20
-1068184.93
30
0
11
-781638.89
21
-1068235.37
31
0
0
LINE
8
20502
6
0_205_2
62
3
10
-781813.83
20
-1067866.62
30
0
11
-781808.64
21
-1067894.79
31
0
0
LINE
8
20502
6
0_205_2
62
3
10
-781608.15
20
-1068300.35
30
0
11
-781604.65
21
-1068305.69
31
0
0
LINE
8
20502
6
0_205_2
62
3
10
-781566.6
20
-1068454.25
30
0
11
-781562.67
21
-1068543.08
31
0
0
LINE
8
20502
6
0_205_2
62
3
10
-781471.99
20
-1068759.63
30
0
11
-781467.63
21
-1068767.52
31
0
0
LINE
8
20502
6
0_205_2
62
3
10
-781532.14
20
-1068630.75
30
0
11
-781476.35
21
-1068751.72
31
0
0
LINE
8
20502
6
0_205_2
62
3
10
-781574.45
20
-1068366.07
30
0
11
-781569.61
21
-1068391.74
31
0
0
LINE
8
20502
6
0_205_2
62
3
10
-781604.65
20
-1068305.69
30
0
11
-781574.45
21
-1068366.07
31
0
0
LINE
8
20502
6
0_205_2
62
3
10
-781808.64
20
-1067894.79
30
0
11
-781804.84
21
-1067915.49
31
0
0
LINE
8
20502
6
0_205_2
62
3
10
-781467.63
20
-1068767.52
30
0
11
-781463.75
21
-1068774.4
31
0
0
LINE
8
20502
6
0_205_2
62
3
10
-781569.61
20
-1068391.74
30
0
11
-781567.1
21
-1068405
31
0
0
LINE
8
20502
6
0_205_2
62
3
10
-781476.35
20
-1068751.72
30
0
11
-781471.99
21
-1068759.63
31
0
0
LINE
8
20502
6
0_205_2
62
3
10
-781562.67
20
-1068543.08
30
0
11
-781532.14
21
-1068630.75
31
0
0
LINE
8
20502
6
0_205_2
62
3
10
-781799.96
20
-1067942.02
30
0
11
-781783.86
21
-1067962.89
31
0
0
LINE
8
20502
6
0_205_2
62
3
10
-781693.83
20
-1068152.41
30
0
11
-781675.02
21
-1068184.93
31
0
0
LINE
8
20502
6
0_205_2
62
3
10
-781626.83
20
-1068260.87
30
0
11
-781608.15
21
-1068300.35
31
0
0
LINE
8
20502
6
0_205_2
62
3
10
-781783.86
20
-1067962.89
30
0
11
-781725.84
21
-1068061.9
31
0
0
LINE
8
20502
6
0_205_2
62
3
10
-781463.75
20
-1068774.4
30
0
11
-781459.29
21
-1068783.71
31
0
0
LINE
8
20502
6
0_205_2
62
3
10
-781638.89
20
-1068235.37
30
0
11
-781626.83
21
-1068260.87
31
0
0
LINE
8
20502
6
0_205_2
62
3
10
-781819.87
20
-1067833.64
30
0
11
-781813.83
21
-1067866.62
31
0
0
LINE
8
20602
6
0_206_2
62
3
10
-781341.82
20
-1068202
30
0
11
-781316.93
21
-1068221.49
31
0
0
LINE
8
20602
6
0_206_2
62
3
10
-781356.32
20
-1068496.25
30
0
11
-781309.99
21
-1068383.1
31
0
0
LINE
8
20602
6
0_206_2
62
3
10
-781293.76
20
-1068279.46
30
0
11
-781275.62
21
-1068291.59
31
0
0
LINE
8
21900
6
CONTINUOUS
62
3
10
-781465.66
20
-1068675.56
30
0
11
-781465.49
21
-1068683.09
31
0
0
LINE
8
21900
6
CONTINUOUS
62
3
10
-781478.8
20
-1068278.65
30
0
11
-781592.45
21
-1068300.27
31
0
0
LINE
8
21900
6
CONTINUOUS
62
3
10
-781403.96
20
-1068609.99
30
0
11
-781410.91
21
-1068522.35
31
0
0
LINE
8
21900
6
CONTINUOUS
62
3
10
-781459.93
20
-1068751.01
30
0
11
-781468.71
21
-1068740.85
31
0
0
LINE
8
21900
6
CONTINUOUS
62
3
10
-781557.98
20
-1068452.16
30
0
11
-781560.59
21
-1068523.66
31
0
0
LINE
8
20602
6
0_206_2
62
3
10
-781658.58
20
-1067956.57
30
0
11
-781819.87
21
-1067833.64
31
0
0
LINE
8
21900
6
CONTINUOUS
62
3
10
-781468.71
20
-1068740.85
30
0
11
-781472.55
21
-1068730.42
31
0
0
LINE
8
21900
6
CONTINUOUS
62
3
10
-781472.55
20
-1068730.42
30
0
11
-781469.81
21
-1068718.07
31
0
0
LINE
8
21900
6
CONTINUOUS
62
3
10
-781469.81
20
-1068718.07
30
0
11
-781465.42
21
-1068701.59
31
0
0
LINE
8
21900
6
CONTINUOUS
62
3
10
-781554.57
20
-1068537.85
30
0
11
-781535.13
21
-1068619.03
31
0
0
LINE
8
21900
6
CONTINUOUS
62
3
10
-781473.83
20
-1068670.04
30
0
11
-781461.97
21
-1068675.17
31
0
0
LINE
8
21900
6
CONTINUOUS
62
3
10
-781461.97
20
-1068675.17
30
0
11
-781466.81
21
-1068686.99
31
0
0
LINE
8
21900
6
CONTINUOUS
62
3
10
-781466.81
20
-1068686.99
30
0
11
-781478.71
21
-1068682.01
31
0
0
LINE
8
20600
6
CONTINUOUS
62
3
10
-781456.11
20
-1068752.6
30
0
11
-781457.11
21
-1068760.45
31
0
0
LINE
8
21900
6
CONTINUOUS
62
3
10
-781459.93
20
-1068751.01
30
0
11
-781456.11
21
-1068752.6
31
0
0
LINE
8
21900
6
CONTINUOUS
62
3
10
-781560.59
20
-1068523.66
30
0
11
-781554.57
21
-1068537.85
31
0
0
LINE
8
21900
6
CONTINUOUS
62
3
10
-781566.6
20
-1068454.25
30
0
11
-781553.19
21
-1068391.48
31
0
0
LINE
8
21900
6
CONTINUOUS
62
3
10
-781626.83
20
-1068260.87
30
0
11
-781624.48
21
-1068257.71
31
0
0
LINE
8
21900
6
CONTINUOUS
62
3
10
-781574.45
20
-1068366.07
30
0
11
-781566.76
21
-1068378.41
31
0
0
LINE
8
21900
6
CONTINUOUS
62
3
10
-781569.61
20
-1068391.74
30
0
11
-781566.76
21
-1068378.41
31
0
0
LINE
8
21900
6
CONTINUOUS
62
3
10
-781604.65
20
-1068305.69
30
0
11
-781592.45
21
-1068300.27
31
0
0
LINE
8
21900
6
CONTINUOUS
62
3
10
-781808.1
20
-1067869.55
30
0
11
-781813.83
21
-1067866.62
31
0
0
LINE
8
21900
6
CONTINUOUS
62
3
10
-781595.29
20
-1068296.59
30
0
11
-781608.15
21
-1068300.35
31
0
0
LINE
8
21900
6
CONTINUOUS
62
3
10
-781476.35
20
-1068751.72
30
0
11
-781457.11
21
-1068760.45
31
0
0
LINE
8
21900
6
CONTINUOUS
62
3
10
-781557.98
20
-1068452.16
30
0
11
-781566.6
21
-1068454.25
31
0
0
LINE
8
21900
6
CONTINUOUS
62
3
10
-781535.13
20
-1068619.03
30
0
11
-781476.35
21
-1068751.72
31
0
0
LINE
8
21900
6
CONTINUOUS
62
3
10
-781808.64
20
-1067894.79
30
0
11
-781750.62
21
-1068010.43
31
0
0
LINE
8
20600
6
CONTINUOUS
62
3
10
-781449.8
20
-1068721.18
30
0
11
-781454.5
21
-1068739.93
31
0
0
LINE
8
20600
6
CONTINUOUS
62
3
10
-781412.97
20
-1068631.49
30
0
11
-781439.41
21
-1068694.61
31
0
0
LINE
8
20600
6
CONTINUOUS
62
3
10
-781439.41
20
-1068694.61
30
0
11
-781449.8
21
-1068721.18
31
0
0
LINE
8
20600
6
CONTINUOUS
62
3
10
-781454.5
20
-1068739.93
30
0
11
-781456.11
21
-1068752.6
31
0
0
LINE
8
21900
6
CONTINUOUS
62
3
10
-781473.47
20
-1068675.74
30
0
11
-781473.3
21
-1068683.27
31
0
0
LINE
8
21900
6
CONTINUOUS
62
3
10
-781473.47
20
-1068675.74
30
0
11
-781465.66
21
-1068675.56
31
0
0
LINE
8
21900
6
CONTINUOUS
62
3
10
-781473.3
20
-1068683.27
30
0
11
-781465.49
21
-1068683.09
31
0
0
LINE
8
20602
6
0_206_2
62
3
10
-781356.32
20
-1068496.25
30
0
11
-781403.96
21
-1068609.99
31
0
0
LINE
8
20602
6
0_206_2
62
3
10
-781500.32
20
-1068078.26
30
0
11
-781658.58
21
-1067956.57
31
0
0
LINE
8
20602
6
0_206_2
62
3
10
-781421.07
20
-1068140.13
30
0
11
-781500.32
21
-1068078.26
31
0
0
LINE
8
20602
6
0_206_2
62
3
10
-781275.62
20
-1068291.59
30
0
11
-781273.19
21
-1068293.21
31
0
0
LINE
8
20602
6
0_206_2
62
3
10
-781309.99
20
-1068383.1
30
0
11
-781273.19
21
-1068293.21
31
0
0
LINE
8
20602
6
0_206_2
62
3
10
-781318.71
20
-1068247.9
30
0
11
-781293.76
21
-1068279.46
31
0
0
LINE
8
20602
6
0_206_2
62
3
10
-781341.82
20
-1068202
30
0
11
-781421.07
21
-1068140.13
31
0
0
LINE
8
20602
6
0_206_2
62
3
10
-781316.93
20
-1068221.49
30
0
11
-781321.51
21
-1068244.36
31
0
0
LINE
8
20602
6
0_206_2
62
3
10
-781321.51
20
-1068244.36
30
0
11
-781318.71
21
-1068247.9
31
0
0
LINE
8
21900
6
CONTINUOUS
62
3
10
-781431.94
20
-1068612.92
30
0
11
-781418.62
21
-1068591.7
31
0
0
LINE
8
21900
6
CONTINUOUS
62
3
10
-781739.97
20
-1068004.91
30
0
11
-781808.1
21
-1067869.55
31
0
0
LINE
8
21900
6
CONTINUOUS
62
3
10
-781561.06
20
-1068387.53
30
0
11
-781566.76
21
-1068378.41
31
0
0
LINE
8
21900
6
CONTINUOUS
62
3
10
-781561.06
20
-1068387.53
30
0
11
-781553.19
21
-1068391.48
31
0
0
LINE
8
21900
6
CONTINUOUS
62
3
10
-781318.71
20
-1068247.9
30
0
11
-781478.8
21
-1068278.65
31
0
0
LINE
8
21900
6
CONTINUOUS
62
3
10
-781413.29
20
-1068430.17
30
0
11
-781538.61
21
-1068374.11
31
0
0
LINE
8
21900
6
CONTINUOUS
62
3
10
-781479.54
20
-1068274.72
30
0
11
-781595.29
21
-1068296.59
31
0
0
LINE
8
21900
6
CONTINUOUS
62
3
10
-781321.51
20
-1068244.36
30
0
11
-781479.54
21
-1068274.72
31
0
0
LINE
8
21900
6
CONTINUOUS
62
3
10
-781431.86
20
-1068452.31
30
0
11
-781428.35
21
-1068523.13
31
0
0
LINE
8
21900
6
CONTINUOUS
62
3
10
-781428.35
20
-1068523.13
30
0
11
-781418.62
21
-1068591.7
31
0
0
LINE
8
21900
6
CONTINUOUS
62
3
10
-781431.86
20
-1068452.31
30
0
11
-781553.19
21
-1068391.48
31
0
0
LINE
8
21900
6
CONTINUOUS
62
3
10
-781412.97
20
-1068631.49
30
0
11
-781418.62
21
-1068591.7
31
0
0
LINE
8
21900
6
CONTINUOUS
62
3
10
-781538.61
20
-1068374.11
30
0
11
-781564.45
21
-1068349.14
31
0
0
LINE
8
21900
6
CONTINUOUS
62
3
10
-781750.62
20
-1068010.43
30
0
11
-781687.45
21
-1068124.11
31
0
0
LINE
8
21900
6
CONTINUOUS
62
3
10
-781613.87
20
-1068253.62
30
0
11
-781678.93
21
-1068119.57
31
0
0
LINE
8
21900
6
CONTINUOUS
62
3
10
-781449.5
20
-1068651.9
30
0
11
-781431.94
21
-1068612.92
31
0
0
LINE
8
21900
6
CONTINUOUS
62
3
10
-781564.45
20
-1068349.14
30
0
11
-781592.45
21
-1068300.27
31
0
0
LINE
8
21900
6
CONTINUOUS
62
3
10
-781595.29
20
-1068296.59
30
0
11
-781613.87
21
-1068253.62
31
0
0
LINE
8
21900
6
CONTINUOUS
62
3
10
-781687.45
20
-1068124.11
30
0
11
-781624.48
21
-1068257.71
31
0
0
LINE
8
21900
6
CONTINUOUS
62
3
10
-781410.91
20
-1068522.35
30
0
11
-781413.29
21
-1068430.17
31
0
0
LINE
8
21900
6
CONTINUOUS
62
3
10
-781678.93
20
-1068119.57
30
0
11
-781739.97
21
-1068004.91
31
0
0
LINE
8
20602
6
0_206_2
62
3
10
-781459.29
20
-1068783.71
30
0
11
-781459.08
21
-1068775.9
31
0
0
LINE
8
21900
6
CONTINUOUS
62
3
10
-781465.42
20
-1068701.59
30
0
11
-781449.5
21
-1068651.9
31
0
0
LINE
8
21900
6
CONTINUOUS
62
3
10
-781478.71
20
-1068682.01
30
0
11
-781473.83
21
-1068670.04
31
0
0
ENDSEC
0
EOF
